<?xml version="1.0" encoding="utf-8"?>
<!-- Svg Vector Icons : http://www.onlinewebfonts.com/icon -->
<!DOCTYPE svg PUBLIC "-//W3C//DTD SVG 1.1//EN" "http://www.w3.org/Graphics/SVG/1.1/DTD/svg11.dtd">
<svg version="1.1" xmlns="http://www.w3.org/2000/svg" xmlns:xlink="http://www.w3.org/1999/xlink" x="0px" y="0px" viewBox="0 0 256 256" enable-background="new 0 0 256 256" xml:space="preserve">
<metadata> Svg Vector Icons : http://www.onlinewebfonts.com/icon </metadata>
<g><g><g><path fill="#000000" d="M123.5,10.4c-5.2,1-10.1,3.7-14.1,7.6c-10.6,10.6-10.6,26.5,0,37.2c3.5,3.5,9.2,6.7,13,7.4l1.8,0.3v7.8v7.8H78.5H32.7v11.6v11.6l-2.4,0.6c-4.2,1.1-8.8,3.7-12.1,6.9c-10.9,10.8-11,26.7-0.3,37.4c10.6,10.6,26.5,10.6,37.2,0c10.6-10.6,10.6-26.5,0-37.2c-3.5-3.5-9.2-6.7-13-7.4l-1.8-0.3v-7.8v-7.8h19.1h19.1v53.5v53.5l-1.8,0.3c-3.8,0.7-9.5,3.9-13,7.4c-10.7,10.7-10.6,26.7,0.2,37.3c5.2,5.1,11.2,7.7,18.3,7.7c11.6,0,21.6-7.5,25.5-19.3c1.2-3.6,1.2-10.7,0-14.3c-3.1-9.3-10.4-16.3-19.3-18.6l-2.4-0.6v-53.5V86.1h19.1h19.1v7.8v7.8l-2,0.3c-3.6,0.6-9.3,3.9-12.8,7.4c-10.8,10.8-10.6,26.7,0.3,37.4c3.2,3.2,7.9,5.8,12.1,6.9l2.4,0.6V166v11.6h22.9h22.9v7.8v7.8l-2.4,0.6c-4.2,1.1-8.8,3.7-12.1,6.9c-10.9,10.8-11,26.7-0.3,37.4c10.6,10.6,26.5,10.6,37.2,0c10.6-10.6,10.6-26.5,0-37.2c-3.5-3.5-9.2-6.7-13-7.4l-1.8-0.3v-11.6V170h-22.9h-22.9v-7.8v-7.8l2.4-0.6c8.9-2.3,16.2-9.3,19.3-18.6c1.2-3.6,1.2-10.7,0-14.3c-3.1-9.3-10.4-16.3-19.3-18.6l-2.4-0.6v-7.8v-7.8h41.9h41.9v7.8v7.8l-2.4,0.6c-8.9,2.3-16.2,9.3-19.3,18.6c-1.2,3.6-1.2,10.7,0,14.3c1.5,4.6,3.8,8.2,7.1,11.5c10.5,10.5,26.4,10.5,37-0.1c10.6-10.6,10.6-26.5,0-37.1c-3.5-3.5-7.9-6.1-12.3-7.2l-2.4-0.6V90.1V78.5h-45.7h-45.7v-7.8V63l2.4-0.6c6.2-1.6,13.2-6.8,16.4-12.2c4.8-8.1,5.2-16.5,1.1-24.9C146.7,14.7,134.4,8.2,123.5,10.4z M134.3,18.5c5.5,1.8,9.7,5.8,11.6,11.1c1.2,3.4,1.2,10.5,0,13.9c-1.9,5.1-5.9,9.1-11,11c-1.8,0.7-3.7,0.9-7,0.9c-5.2,0-8.1-0.9-11.6-3.4c-9.9-7.2-9.9-23.5,0.1-30.9C121.2,17.6,128.4,16.6,134.3,18.5z M42.8,110c5.5,1.8,9.7,5.8,11.6,11.1c1.2,3.4,1.2,10.5,0,13.9c-1.9,5-5.9,9.1-11,11c-3.4,1.2-10.5,1.2-13.9,0c-9.5-3.5-14.3-14.1-11.2-24.2C21.6,111.9,32.5,106.6,42.8,110z M135.2,110.1c7.5,2.7,12.4,10.7,11.8,19.3c-0.7,10-7.5,16.8-17.5,17.5c-6.8,0.5-12.9-2.1-16.8-7.2c-2.3-3.1-3.2-5.8-3.6-10.6c-0.6-8.9,4-16,12.4-19.1c2.5-0.9,3.6-1,7.2-0.9C131.1,109.3,134,109.7,135.2,110.1z M225.7,109.9c5.4,1.7,9.7,5.8,11.7,11.1c1.2,3.4,1.2,10.5,0,13.9c-1.9,5-5.9,9.1-11,11c-3.4,1.2-10.5,1.2-13.9,0c-9.5-3.5-14.3-14.1-11.1-24.2C204.5,111.9,215.3,106.7,225.7,109.9z M88.5,201.4c8.2,2.6,13.3,10.4,12.7,19.5c-0.7,10-7.5,16.8-17.5,17.5c-12.1,0.9-21.2-8.1-20.3-20.1c0.3-4.8,1.2-7.4,3.6-10.5C71.7,201.5,80.5,198.9,88.5,201.4z M180,201.5c5.5,1.8,9.7,5.8,11.6,11.1c1.2,3.4,1.2,10.5,0,13.9c-1.9,5-5.9,9.1-11,11c-3.4,1.2-10.5,1.2-13.9,0c-9.5-3.5-14.3-14.1-11.1-24.2C158.8,203.4,169.7,198,180,201.5z"/></g></g></g>
</svg>